<svg aria-hidden="true" style="position: absolute; width: 0; height: 0; overflow: hidden;" version="1.1" xmlns="http://www.w3.org/2000/svg" xmlns:xlink="http://www.w3.org/1999/xlink">
<defs>
<symbol id="burger" viewBox="0 0 32 32">
<path fill="none"  stroke-linejoin="miter" stroke-linecap="round" stroke-miterlimit="4" stroke-width="2.6815" d="M25.333 9.333h-18.667"></path>
<path fill="none"  stroke-linejoin="miter" stroke-linecap="round" stroke-miterlimit="4" stroke-width="2.6815" d="M25.333 16h-13.333"></path>
<path fill="none"  stroke-linejoin="miter" stroke-linecap="round" stroke-miterlimit="4" stroke-width="2.6815" d="M25.333 22.667h-8"></path>
</symbol>
<symbol id="arrow-right-up" viewBox="0 0 31 32">
<path fill="#fff" style="fill: var(--color1, #fff)" d="M9.986 9.88c0-0.684 0.554-1.238 1.238-1.238h9.901c0.683 0 1.238 0.554 1.238 1.238v9.901c0 0.683-0.554 1.238-1.238 1.238s-1.238-0.554-1.238-1.238v-6.913l-10.263 10.263c-0.483 0.483-1.267 0.483-1.75 0s-0.483-1.267 0-1.75l10.263-10.263h-6.913c-0.684 0-1.238-0.554-1.238-1.238z"></path>
</symbol>
<symbol id="music" viewBox="0 0 32 32">
<path fill="none"  stroke-linejoin="round" stroke-linecap="round" stroke-miterlimit="4" stroke-width="1.7778" d="M17.63 16.37h-5.037M13.114 8.077l-2.302-2.302c-0.472-0.472-1.113-0.738-1.781-0.738h-2.735c-1.391 0-2.519 1.128-2.519 2.518v13.852c0 1.391 1.128 2.518 2.519 2.518h17.63c1.391 0 2.519-1.127 2.519-2.518v-10.074c0-1.391-1.128-2.518-2.519-2.518h-9.031c-0.668 0-1.309-0.265-1.781-0.738z"></path>
</symbol>
<symbol id="video" viewBox="0 0 32 32">
<path fill="#fff"  d="M20 16l0.343 0.572c0.201-0.12 0.324-0.337 0.324-0.572s-0.123-0.451-0.324-0.572l-0.343 0.572zM13.333 12l0.343-0.572c-0.206-0.124-0.462-0.127-0.671-0.008s-0.338 0.34-0.338 0.58h0.667zM13.333 20h-0.667c0 0.24 0.129 0.462 0.338 0.58s0.466 0.115 0.671-0.009l-0.343-0.572zM6.667 7.333h18.667v-1.333h-18.667v1.333zM27.333 9.333v13.333h1.333v-13.333h-1.333zM25.333 24.667h-18.667v1.333h18.667v-1.333zM4.667 22.667v-13.333h-1.333v13.333h1.333zM20.343 15.428l-6.667-4-0.686 1.143 6.667 4 0.686-1.143zM12.667 12v8h1.333v-8h-1.333zM13.676 20.572l6.667-4-0.686-1.143-6.667 4 0.686 1.143zM6.667 24.667c-1.105 0-2-0.895-2-2h-1.333c0 1.841 1.492 3.333 3.333 3.333v-1.333zM27.333 22.667c0 1.105-0.895 2-2 2v1.333c1.841 0 3.333-1.492 3.333-3.333h-1.333zM25.333 7.333c1.105 0 2 0.895 2 2h1.333c0-1.841-1.492-3.333-3.333-3.333v1.333zM6.667 6c-1.841 0-3.333 1.492-3.333 3.333h1.333c0-1.105 0.895-2 2-2v-1.333z"></path>
</symbol>
<symbol id="home" viewBox="0 0 32 32">
<path fill="#555" style="fill: var(--color1, #555)" d="M16 9.024c-0.171 0-0.341 0.065-0.472 0.196l-5.975 5.975c-0.131 0.131-0.196 0.301-0.196 0.472s0.011 0.256 0.196 0.256h1.555v6.296c0 0.394 0.317 0.711 0.711 0.711h2.176c0.323 0 0.584-0.26 0.584-0.584v-2.252c0-0.379 0.305-0.684 0.684-0.684h1.476c0.379 0 0.684 0.305 0.684 0.684v2.252c0 0.323 0.26 0.584 0.584 0.584h2.176c0.394 0 0.711-0.317 0.711-0.711v-6.296h1.555c0.185 0 0.196-0.086 0.196-0.256s-0.065-0.341-0.196-0.472l-5.975-5.975c-0.131-0.131-0.301-0.196-0.472-0.196z"></path>
</symbol>
<symbol id="user" viewBox="0 0 32 32">
<path d="M16 15.65c3.558 0 6.442-3.503 6.442-7.825s-0.947-7.825-6.442-7.825-6.442 3.503-6.442 7.825c0 4.322 2.884 7.825 6.442 7.825z"></path>
<path d="M3.832 27.598c-0.001-0.264-0.002-0.074 0 0z"></path>
<path d="M28.167 27.803c0.003-0.072 0.001-0.5 0 0z"></path>
<path d="M28.154 27.282c-0.119-7.528-1.103-9.673-8.626-11.032 0 0-1.059 1.35-3.528 1.35s-3.528-1.35-3.528-1.35c-7.442 1.343-8.485 3.456-8.622 10.787-0.011 0.599-0.016 0.63-0.018 0.561 0 0.13 0.001 0.371 0.001 0.791 0 0 1.791 3.611 12.167 3.611s12.167-3.611 12.167-3.611c0-0.27 0-0.457 0-0.585-0.002 0.043-0.006-0.040-0.014-0.522z"></path>
</symbol>
<symbol id="play" viewBox="0 0 32 32">
<path d="M30.408 13.718l-26.991-13.495c-0.364-0.169-0.765-0.244-1.165-0.218s-0.788 0.151-1.128 0.365c-0.34 0.214-0.62 0.509-0.817 0.859s-0.302 0.744-0.308 1.145v26.979c-0.003 0.412 0.1 0.818 0.299 1.178s0.488 0.664 0.839 0.88 0.751 0.338 1.163 0.354c0.412 0.016 0.82-0.074 1.187-0.262l26.921-13.495c0.399-0.2 0.734-0.507 0.968-0.887s0.358-0.817 0.358-1.263-0.124-0.884-0.358-1.263c-0.234-0.38-0.57-0.687-0.968-0.887v0.012z"></path>
</symbol>
<symbol id="pause" viewBox="0 0 32 32">
<path d="M10.199 31.754h-6.799c-1.877 0-3.4-1.524-3.4-3.402v-24.95c0-1.878 1.523-3.402 3.4-3.402h6.799c1.877 0 3.4 1.524 3.4 3.402v24.95c0 1.878-1.523 3.402-3.4 3.402zM31.729 28.352v-24.95c0-1.878-1.523-3.402-3.4-3.402h-6.799c-1.877 0-3.4 1.524-3.4 3.402v24.95c0 1.878 1.523 3.402 3.4 3.402h6.799c1.877 0 3.4-1.524 3.4-3.402z"></path>
</symbol>
<symbol id="previous" viewBox="0 0 32 32">
<path d="M5.143 4.286c0-0.227-0.090-0.445-0.251-0.606s-0.379-0.251-0.606-0.251c-0.227 0-0.445 0.090-0.606 0.251s-0.251 0.379-0.251 0.606v23.429c0 0.227 0.090 0.445 0.251 0.606s0.379 0.251 0.606 0.251 0.445-0.090 0.606-0.251c0.161-0.161 0.251-0.379 0.251-0.606v-23.429zM28.571 6.005c0-2.075-2.333-3.296-4.038-2.112l-14.29 9.92c-0.34 0.236-0.618 0.55-0.81 0.916s-0.294 0.773-0.295 1.187 0.097 0.822 0.287 1.189c0.19 0.368 0.466 0.684 0.804 0.922l14.29 10.069c1.703 1.2 4.053-0.017 4.053-2.102v-19.99zM25.511 5.301c0.129-0.089 0.279-0.142 0.435-0.152s0.312 0.023 0.451 0.096 0.255 0.182 0.336 0.316c0.081 0.134 0.124 0.287 0.124 0.444v19.99c0 0.157-0.043 0.311-0.125 0.445s-0.198 0.243-0.338 0.316c-0.139 0.072-0.296 0.105-0.453 0.094s-0.307-0.064-0.436-0.154l-14.29-10.069c-0.113-0.079-0.205-0.185-0.268-0.307s-0.096-0.259-0.096-0.397c0-0.138 0.034-0.274 0.098-0.396s0.157-0.227 0.27-0.306l14.29-9.92z"></path>
</symbol>
<symbol id="next" viewBox="0 0 32 32">
<path d="M4 6.337c0-1.877 2.104-2.987 3.653-1.925l13.997 9.592c0.311 0.214 0.567 0.499 0.743 0.833s0.27 0.705 0.271 1.083c0.001 0.378-0.089 0.75-0.263 1.085s-0.427 0.623-0.737 0.838l-13.999 9.736c-1.545 1.076-3.665-0.033-3.665-1.916v-19.327zM6.521 6.063c-0.050-0.034-0.108-0.053-0.169-0.057s-0.12 0.010-0.174 0.038c-0.053 0.028-0.098 0.070-0.129 0.122s-0.048 0.111-0.048 0.171v19.327c0 0.269 0.301 0.427 0.523 0.273l13.997-9.735c0.045-0.031 0.081-0.072 0.106-0.12s0.038-0.101 0.038-0.155c-0-0.054-0.013-0.107-0.039-0.155s-0.062-0.089-0.106-0.119l-13.999-9.591zM28 5c0-0.265-0.105-0.52-0.293-0.707s-0.442-0.293-0.707-0.293-0.52 0.105-0.707 0.293c-0.188 0.188-0.293 0.442-0.293 0.707v22c0 0.265 0.105 0.52 0.293 0.707s0.442 0.293 0.707 0.293 0.52-0.105 0.707-0.293c0.188-0.187 0.293-0.442 0.293-0.707v-22z"></path>
</symbol>
</defs>
</svg>
