<svg aria-hidden="true" style="position: absolute; width: 0; height: 0; overflow: hidden;" version="1.1" xmlns="http://www.w3.org/2000/svg" xmlns:xlink="http://www.w3.org/1999/xlink">
<defs>
<symbol id="burger" viewBox="0 0 32 32">
<path fill="none"  stroke-linejoin="miter" stroke-linecap="round" stroke-miterlimit="4" stroke-width="2.6815" d="M25.333 9.333h-18.667"></path>
<path fill="none"  stroke-linejoin="miter" stroke-linecap="round" stroke-miterlimit="4" stroke-width="2.6815" d="M25.333 16h-13.333"></path>
<path fill="none"  stroke-linejoin="miter" stroke-linecap="round" stroke-miterlimit="4" stroke-width="2.6815" d="M25.333 22.667h-8"></path>
</symbol>
<symbol id="arrow-right-up" viewBox="0 0 31 32">
<path fill="#fff" style="fill: var(--color1, #fff)" d="M9.986 9.88c0-0.684 0.554-1.238 1.238-1.238h9.901c0.683 0 1.238 0.554 1.238 1.238v9.901c0 0.683-0.554 1.238-1.238 1.238s-1.238-0.554-1.238-1.238v-6.913l-10.263 10.263c-0.483 0.483-1.267 0.483-1.75 0s-0.483-1.267 0-1.75l10.263-10.263h-6.913c-0.684 0-1.238-0.554-1.238-1.238z"></path>
</symbol>
<symbol id="music" viewBox="0 0 32 32">
<path fill="none"  stroke-linejoin="round" stroke-linecap="round" stroke-miterlimit="4" stroke-width="1.7778" d="M17.63 16.37h-5.037M13.114 8.077l-2.302-2.302c-0.472-0.472-1.113-0.738-1.781-0.738h-2.735c-1.391 0-2.519 1.128-2.519 2.518v13.852c0 1.391 1.128 2.518 2.519 2.518h17.63c1.391 0 2.519-1.127 2.519-2.518v-10.074c0-1.391-1.128-2.518-2.519-2.518h-9.031c-0.668 0-1.309-0.265-1.781-0.738z"></path>
</symbol>
<symbol id="video" viewBox="0 0 32 32">
<path fill="#fff"  d="M20 16l0.343 0.572c0.201-0.12 0.324-0.337 0.324-0.572s-0.123-0.451-0.324-0.572l-0.343 0.572zM13.333 12l0.343-0.572c-0.206-0.124-0.462-0.127-0.671-0.008s-0.338 0.34-0.338 0.58h0.667zM13.333 20h-0.667c0 0.24 0.129 0.462 0.338 0.58s0.466 0.115 0.671-0.009l-0.343-0.572zM6.667 7.333h18.667v-1.333h-18.667v1.333zM27.333 9.333v13.333h1.333v-13.333h-1.333zM25.333 24.667h-18.667v1.333h18.667v-1.333zM4.667 22.667v-13.333h-1.333v13.333h1.333zM20.343 15.428l-6.667-4-0.686 1.143 6.667 4 0.686-1.143zM12.667 12v8h1.333v-8h-1.333zM13.676 20.572l6.667-4-0.686-1.143-6.667 4 0.686 1.143zM6.667 24.667c-1.105 0-2-0.895-2-2h-1.333c0 1.841 1.492 3.333 3.333 3.333v-1.333zM27.333 22.667c0 1.105-0.895 2-2 2v1.333c1.841 0 3.333-1.492 3.333-3.333h-1.333zM25.333 7.333c1.105 0 2 0.895 2 2h1.333c0-1.841-1.492-3.333-3.333-3.333v1.333zM6.667 6c-1.841 0-3.333 1.492-3.333 3.333h1.333c0-1.105 0.895-2 2-2v-1.333z"></path>
</symbol>
<symbol id="home" viewBox="0 0 32 32">
<path fill="#555" style="fill: var(--color1, #555)" d="M16 9.024c-0.171 0-0.341 0.065-0.472 0.196l-5.975 5.975c-0.131 0.131-0.196 0.301-0.196 0.472s0.011 0.256 0.196 0.256h1.555v6.296c0 0.394 0.317 0.711 0.711 0.711h2.176c0.323 0 0.584-0.26 0.584-0.584v-2.252c0-0.379 0.305-0.684 0.684-0.684h1.476c0.379 0 0.684 0.305 0.684 0.684v2.252c0 0.323 0.26 0.584 0.584 0.584h2.176c0.394 0 0.711-0.317 0.711-0.711v-6.296h1.555c0.185 0 0.196-0.086 0.196-0.256s-0.065-0.341-0.196-0.472l-5.975-5.975c-0.131-0.131-0.301-0.196-0.472-0.196z"></path>
</symbol>
<symbol id="user" viewBox="0 0 32 32">
<path d="M16 15.65c3.558 0 6.442-3.503 6.442-7.825s-0.947-7.825-6.442-7.825-6.442 3.503-6.442 7.825c0 4.322 2.884 7.825 6.442 7.825z"></path>
<path d="M3.832 27.598c-0.001-0.264-0.002-0.074 0 0z"></path>
<path d="M28.167 27.803c0.003-0.072 0.001-0.5 0 0z"></path>
<path d="M28.154 27.282c-0.119-7.528-1.103-9.673-8.626-11.032 0 0-1.059 1.35-3.528 1.35s-3.528-1.35-3.528-1.35c-7.442 1.343-8.485 3.456-8.622 10.787-0.011 0.599-0.016 0.63-0.018 0.561 0 0.13 0.001 0.371 0.001 0.791 0 0 1.791 3.611 12.167 3.611s12.167-3.611 12.167-3.611c0-0.27 0-0.457 0-0.585-0.002 0.043-0.006-0.040-0.014-0.522z"></path>
</symbol>
</defs>
</svg>
